#N canvas 121 36 836 651 12;
#X obj 85 87 ctlin 1;
#X floatatom 85 111 5 0 0 0 - - - 0;
#X floatatom 168 111 5 0 0 0 - - - 0;
#X floatatom 266 114 5 0 0 0 - - - 0;
#X obj 168 87 ctlin 2;
#X obj 266 90 ctlin 3;
#X obj 37 115 vsl 19 162 0 127 0 0 empty empty empty 0 -9 0 12 #fcfcfc #000000 #000000 0 1;
#X obj 137 117 vsl 19 162 0 127 0 0 empty empty empty 0 -9 0 12 #fcfcfc #000000 #000000 0 1;
#X obj 223 126 vsl 19 162 0 127 0 0 empty empty empty 0 -9 0 12 #fcfcfc #000000 #000000 0 1;
#X floatatom 169 278 5 0 0 0 - - - 0;
#X obj 169 254 max;
#X floatatom 396 124 5 0 0 0 - - - 0;
#X floatatom 479 124 5 0 0 0 - - - 0;
#X floatatom 577 127 5 0 0 0 - - - 0;
#X obj 348 128 vsl 19 162 0 127 0 0 empty empty empty 0 -9 0 12 #fcfcfc #000000 #000000 0 1;
#X obj 448 130 vsl 19 162 0 127 0 0 empty empty empty 0 -9 0 12 #fcfcfc #000000 #000000 0 1;
#X obj 534 139 vsl 19 162 0 127 0 0 empty empty empty 0 -9 0 12 #fcfcfc #000000 #000000 0 1;
#X floatatom 480 291 5 0 0 0 - - - 0;
#X obj 480 267 max;
#X obj 396 100 ctlin 4;
#X obj 479 100 ctlin 5;
#X obj 577 103 ctlin 6;
#X obj 55 413 oscparse;
#X listbox 55 474 11 0 0 0 - - - 0;
#X floatatom 234 415 4 0 0 0 - - - 0;
#X obj 55 444 list split, f 26;
#X listbox 144 474 45 0 0 0 - - - 0;
#X text 228 392 split point;
#X text 212 343 receive OSC via UDP \, binary at port 5000, f 20;
#X obj 68 381 print OSC-packet-2;
#X msg 517 589 disconnect;
#X obj 487 618 netsend -u -b;
#X obj 504 539 loadbang;
#X text 590 619 send as UDP \, binary;
#X text 624 448 a 'set' message changes address, f 15;
#X obj 55 351 netreceive -u -b 9999;
#X msg 504 563 connect localhost 12000;
#X floatatom 512 420 5 0 0 0 - - - 0;
#X floatatom 652 412 5 0 0 0 - - - 0;
#X obj 487 503 oscformat sensor gx;
#X obj 649 505 oscformat sensor gy;
#X obj 404 338 / 127;
#X obj 463 438 int;
#X obj 598 330 / 127;
#X obj 597 357 - 0.5;
#X obj 673 372 int;
#X obj 401 392 * 50;
#X obj 595 384 * 50;
#X obj 403 365 - 0.5;
#X obj 138 503 unpack f f f f;
#X obj 139 636 dac~;
#X obj 131 541 sig~;
#X obj 165 540 sig~;
#X obj 203 540 sig~;
#X obj 237 539 sig~;
#X obj 137 578 nn~ etz4.ts decode;
#X connect 0 0 1 0;
#X connect 1 0 6 0;
#X connect 2 0 10 0;
#X connect 4 0 2 0;
#X connect 4 0 7 0;
#X connect 5 0 3 0;
#X connect 5 0 8 0;
#X connect 10 0 9 0;
#X connect 11 0 14 0;
#X connect 11 0 41 0;
#X connect 12 0 18 0;
#X connect 12 0 43 0;
#X connect 18 0 17 0;
#X connect 19 0 11 0;
#X connect 20 0 12 0;
#X connect 20 0 15 0;
#X connect 21 0 13 0;
#X connect 21 0 16 0;
#X connect 22 0 25 0;
#X connect 22 1 24 0;
#X connect 24 0 25 1;
#X connect 25 0 23 0;
#X connect 25 1 26 0;
#X connect 26 0 49 0;
#X connect 30 0 31 0;
#X connect 32 0 36 0;
#X connect 35 0 22 0;
#X connect 36 0 31 0;
#X connect 37 0 39 0;
#X connect 38 0 40 0;
#X connect 39 0 31 0;
#X connect 40 0 31 0;
#X connect 41 0 48 0;
#X connect 42 0 37 0;
#X connect 43 0 44 0;
#X connect 44 0 47 0;
#X connect 45 0 38 0;
#X connect 46 0 42 0;
#X connect 47 0 45 0;
#X connect 48 0 46 0;
#X connect 49 0 51 0;
#X connect 49 1 52 0;
#X connect 49 2 53 0;
#X connect 49 3 54 0;
#X connect 51 0 55 0;
#X connect 52 0 55 1;
#X connect 53 0 55 2;
#X connect 54 0 55 3;
#X connect 55 0 50 0;
#X connect 55 0 50 1;
